<svg xmlns="http://www.w3.org/2000/svg" width="13" height="14" fill="none" viewBox="0 0 13 14">
  <path stroke="#666" d="M2.833 6.5c0-1.728 0-2.593.537-3.13.537-.537 1.402-.537 3.13-.537h1.833c1.729 0 2.593 0 3.13.537C12 3.907 12 4.772 12 6.5v3.055c0 1.729 0 2.593-.537 3.13-.537.537-1.401.537-3.13.537H6.5c-1.728 0-2.593 0-3.13-.537-.537-.537-.537-1.401-.537-3.13V6.5Z"/>
  <path stroke="#666" d="M2.833 11.389A1.833 1.833 0 0 1 1 9.556V5.889c0-2.305 0-3.457.716-4.173C2.432 1.001 3.584 1 5.89 1h2.444a1.833 1.833 0 0 1 1.834 1.833"/>
</svg>
