<svg xmlns="http://www.w3.org/2000/svg" width="10" height="11" fill="none" viewBox="0 0 10 11">
  <path fill="#000" fill-rule="evenodd" d="M5.283.118a.4.4 0 0 0-.566 0L3.504 1.333a.4.4 0 0 1-.488.06L1.896.72a.4.4 0 0 0-.596.432l.565 2.483a.4.4 0 0 0 .39.31h5.492a.4.4 0 0 0 .39-.311L8.7 1.153A.4.4 0 0 0 8.105.72l-1.12.672a.4.4 0 0 1-.488-.06L5.283.118Zm3.36 5.055a.376.376 0 0 0-.352-.227H1.709a.376.376 0 0 0-.352.227C1.083 5.828.94 6.618.94 7.54c0 1.139.471 2.032 1.25 2.624.76.578 1.764.836 2.81.836 1.045 0 2.051-.258 2.81-.836.778-.592 1.25-1.485 1.25-2.624 0-.922-.144-1.712-.416-2.367M5.619 6.741a.464.464 0 0 0-.59-.04 4.72 4.72 0 0 1-2.471.86c-.227.013-.42.196-.381.42.094.542.363.942.74 1.228.493.376 1.218.592 2.084.592.865 0 1.59-.216 2.083-.592.31-.23.541-.55.663-.916.066-.198-.072-.394-.27-.457a4.8 4.8 0 0 1-1.858-1.094" clip-rule="evenodd"/>
</svg>
